<svg id="Layer_1" width="68" height="68" data-name="Layer 1" xmlns="http://www.w3.org/2000/svg" viewBox="0 0 800 800"><defs><style>.cls-1{fill:none;}.cls-2{fill:#fff;}.cls-3{fill:#abcbeb;}.cls-4{fill:#6a7695;}</style></defs><title>helpdesk ticket</title><rect class="cls-1" width="800" height="800"/><path class="cls-2" d="M204.13,295.17c8.84-8.95,17.75-17.83,26.48-26.89,2.51-2.61,4.79-3.17,8.44-2.28,46.11,11.25,84.41-29.84,72.66-73.66-.82-3.08-.32-5,1.92-7,17.52-15.65,33-33.33,49.71-49.8,2.45-2.41,4-2.66,6.5-.12q24,24.27,48.28,48.29c2.42,2.4,2.92,4.28,1.29,7.6-3.08,6.31-2.2,12.55,2.81,17.78s11.49,6.16,17.61,2.74c4.46-2.5,6.28,0,8.74,2.43q78.12,78.09,156.26,156.18,59.08,59.07,118.24,118.07c4.63,4.59,5,7.17.11,11.85-15.65,15-30.88,30.47-46.07,46-3,3-5.55,3.77-9.77,2.82-43.93-9.85-81.28,26.49-72.58,70.67,1,5.34.37,8.88-3.69,12.59-8.1,7.39-15.72,15.31-23.53,23-5.45,1.73-7.68-2.88-10.5-5.69-38.33-38.16-75.95-77.05-114.92-114.53-66.77-64.22-131-130.93-197.29-195.65C232.59,327.57,220,316,207.92,303.81,205.69,301.56,201.87,299.58,204.13,295.17ZM83.94,303.6q39.24,39.58,78.85,78.8c1.66,1.65,3.42,4.59,6.66,2.24.65-3.06-.61-6.28.82-9.26,1.25-4.44,7.95-6.93,6.78-10.86-1.2-4.09-6.19-7.07-9.56-10.5-3.18-3.24-6.43-6.43-9.62-9.67-14.56-14.79-14.94-32-.51-46.7,20.07-20.41,40.4-40.56,60.72-60.72,7.37-7.31,12.31-8.13,21.67-3.89,5.7,2.59,11.45,4.48,17.82,3.6,19.3-2.66,30.13-22,22.56-40.36-5.68-13.76-5.16-16.36,5.32-26.79,3-3,5.88-6.24,9.1-9.05s3.49-5.15.12-8.39Q279.08,137,264,121.41c-3.33-3.45-5.42-3.76-9-.11-15.7,16.08-31.64,31.91-47.65,47.68-2.83,2.79-3.36,5.33-2.54,9.22,9.58,45.61-27,82.12-72.67,72.51-4-.83-6.44-.08-9.16,2.7-13.65,14-27.45,27.77-41.2,41.63C79.81,298.57,81.59,301.23,83.94,303.6ZM184.56,404.22Q309.27,529.06,434.12,653.77c2.16,2.15,3.95,5.31,7.88,4.57,3.07-3,5.91-6.24,9.29-8.81,5.23-4,5.27-6.71.31-11.64Q363.07,549.9,275,461.44q-34.62-34.63-69.3-69.2c-2.19-2.18-4.18-6.47-8.17-1.85-4.62,5.36-10.73,6.64-17.47,6C179.22,400.3,182.42,402.08,184.56,404.22Z"/><path class="cls-3" d="M204.13,295.17c.36,3.62,3.3,5.41,5.55,7.59C283,374,354.46,447.22,427.57,518.72,471.78,562,515.19,606,559.33,649.28c2.44,2.39,4.39,5.53,8.21,6.11-7.71,7.79-15.49,15.51-23.07,23.41-2.63,2.74-4.61,3.94-7.68.43-14-16-31.4-28.85-44.08-46.19-3.51-4.79-9.46-6.69-13.64-11Q443.33,585.21,407,548.93c-25.66-25.65-51.67-51-77.34-76.6-19.44-19.43-38.47-39.27-57.91-58.71-19.81-19.8-39.91-39.31-59.84-59-10.07-9.95-19.95-20.1-30.11-29.95-3-2.89-3.23-4.8-.07-7.74C189.36,309.86,196.69,302.45,204.13,295.17ZM170.44,386.7c-.62-.58-.77-1.61-1.74-1.87a10.86,10.86,0,0,1-2-1.29Q125.92,342.77,85.14,302c-2-2-3.48-4-3.32-6.95-11.25,10.09-11.22,10.06-.55,20.72L424.76,659.21c8.85,8.86,8.86,8.85,17.24-.87-2-1.72-4.18-3.31-6.05-5.18Q310.64,527.76,185.4,402.32c-1.88-1.89-3.54-4-5.31-6C176.5,393.5,172.36,391.21,170.44,386.7Z"/><path class="cls-4" d="M746.36,467.9Q624.47,346.15,502.67,224.28,446.45,168,390.23,111.8c-15-14.94-32.35-14.7-47.31.25-6.06,6.06-12.31,11.93-18.11,18.23-3.11,3.38-5,3.29-8.19,0-11.15-11.55-22.59-22.84-34-34.15-14.16-14.06-32-14.21-46.23-.11-20.18,20-40.17,40.1-60.18,60.23-8.12,8.17-8.83,12.66-4.1,23,5.77,12.55,3.82,24.87-5.38,34-8.75,8.68-21,10.48-33.43,4.9-10.83-4.88-14.84-4.1-23.51,4.56C90.68,241.79,71.63,261,52.42,280c-17.25,17.09-17.24,33.61-.1,50.74q106.56,106.42,213,213,71.85,71.85,143.74,143.67c15.79,15.75,32.86,15.56,48.48-.14,5.85-5.89,11.91-11.58,17.52-17.69,3.13-3.42,5.1-3.22,8.26,0,10.6,11,21.52,21.64,32.31,32.43,14.53,14.52,26.24,16.11,43.73,5.93,12.33-6.45,20-17.89,29.48-27.42.61-.62.12-2.1,1.07-2.86,11.35-11.35,22.83-22.58,34-34.1,8-8.2,8.51-12.92,3.74-23.08-5.71-12.17-3.62-24.8,5.62-34,8.43-8.36,21.19-10.36,32.74-5.15s15.83,4.39,24.91-4.73c18.5-18.59,36.89-37.29,55.5-55.78C765.24,502.21,765.22,486.74,746.36,467.9ZM452.18,649.37c-3.38,2.57-6.21,5.85-9.29,8.81h0c-8.38,9.72-8.39,9.73-17.24.87L82.16,315.6c-10.67-10.66-10.7-10.63.55-20.72h0c13.75-13.86,27.56-27.67,41.2-41.63,2.72-2.78,5.18-3.53,9.16-2.7,45.68,9.61,82.25-26.9,72.67-72.51-.82-3.89-.29-6.43,2.54-9.22,16-15.77,31.95-31.6,47.65-47.68,3.56-3.65,5.66-3.34,9,.11q15,15.58,30.64,30.64c3.37,3.24,3.24,5.46-.12,8.39s-6.07,6-9.1,9.05c-10.48,10.43-11,13-5.32,26.79,7.58,18.32-3.26,37.7-22.56,40.36-6.37.88-12.12-1-17.82-3.6-9.36-4.24-14.3-3.42-21.67,3.89-20.32,20.16-40.65,40.31-60.72,60.72-14.43,14.69-14.05,31.91.51,46.7,3.19,3.24,6.44,6.43,9.62,9.67,3.37,3.43,8.36,6.41,9.56,10.5,1.17,3.93-5.53,6.42-6.78,10.86-1.42,3-.17,6.21-.82,9.26a5.2,5.2,0,0,1-.47.3c.72.37.91,1.24,1.47,1.76,1.91,4.51,6.06,6.8,9.64,9.65,6.74.68,12.85-.6,17.47-6,4-4.62,6-.33,8.17,1.85q34.71,34.55,69.3,69.2,88.23,88.29,176.57,176.45C457.45,642.66,457.41,645.39,452.18,649.37Zm271.89-149.2c-15.65,15-30.88,30.48-46.07,46-3,3-5.55,3.77-9.77,2.82-43.93-9.85-81.28,26.49-72.58,70.68,1.05,5.33.37,8.87-3.69,12.58-8.1,7.39-15.72,15.31-23.53,23h0c-7.71,7.79-15.49,15.51-23.07,23.41-2.63,2.74-4.61,3.94-7.68.43-14-16-31.4-28.85-44.08-46.18-3.51-4.8-9.46-6.7-13.64-11q-35.74-36.84-72.07-73.11c-25.66-25.66-51.67-51-77.33-76.61-19.45-19.43-38.48-39.27-57.92-58.71-19.81-19.8-39.91-39.31-59.84-59-10.07-10-20-20.09-30.11-30-3-2.89-3.23-4.8-.06-7.74,7.62-7.08,15-14.49,22.39-21.77h0c8.84-8.94,17.76-17.83,26.48-26.89,2.51-2.6,4.79-3.17,8.44-2.28,46.11,11.25,84.42-29.84,72.66-73.66-.82-3.08-.32-5,1.92-7,17.53-15.64,33-33.33,49.72-49.8,2.44-2.41,4-2.66,6.49-.12q24,24.27,48.28,48.29c2.42,2.4,2.92,4.28,1.29,7.6-3.08,6.31-2.2,12.55,2.81,17.78s11.49,6.16,17.61,2.74c4.46-2.5,6.28,0,8.74,2.43q78.12,78.09,156.26,156.18Q664.81,429.32,724,488.32C728.59,492.91,729,495.49,724.07,500.17ZM528.41,347.06c-1.88,13.49-3.51,27-5.76,40.46-1,6.19.32,9.72,6.4,12.47,11.69,5.29,22.93,11.54,34.37,17.36,4.16,2.12,8.44,4.23,7.46,10s-6,6.22-10.42,7c-13.15,2.39-26.29,4.89-39.51,6.82-4.53.66-6.44,2.34-7.08,6.83-1.87,13.22-4.12,26.39-6.23,39.58-.77,4.78-1.09,10.32-6.91,11.5-6,1.22-8.07-4.06-10.33-8.26-5.84-10.84-12-21.53-17.2-32.66-3-6.5-6.76-8.33-13.75-6.92-12.3,2.48-24.79,4-37.19,5.93-4.29.67-8.95,1.69-11.46-3-2.82-5.33.69-9,4.25-12.5,9.11-9.06,17.87-18.48,27.22-27.28,4.32-4.07,4.52-7.33,1.73-12.37-6.59-11.93-12.53-24.22-18.79-36.34-1.94-3.77-3.34-7.53.19-11.05s7.31-2.24,11.1-.38c12.5,6.11,25.11,12,37.44,18.41,4.67,2.44,7.54,1.71,11-2,9.55-10.12,19.47-19.89,29.23-29.81,2.74-2.78,5.66-5.17,9.87-3.24S528.87,343,528.41,347.06ZM353.46,298.45a47.06,47.06,0,0,0,17.41-17.27c5.82-9.95-2.34-23-13.8-22.71-9.45.22-25.8,16.69-26,26.16C330.9,296.47,343.15,304.29,353.46,298.45ZM287.7,327.9c-.21,11.76,12.18,19.84,22.35,14a47.35,47.35,0,0,0,17.79-18c5.3-9.67-3.07-22.19-14.12-22.07C304.37,301.93,287.87,318.46,287.7,327.9Zm86.78-86.25a14.45,14.45,0,0,0,8.24,13.56c5.39,2.85,11.13,2.79,15.79-1.07a119.09,119.09,0,0,0,14.66-14.62c4.28-5,3.78-11,.69-16.47-3-5.29-7.93-7.65-13.61-7.91C390.56,215.42,374.45,232.26,374.48,241.65Z"/></svg>