<svg width="25" height="25" viewBox="0 0 25 25" fill="none" xmlns="http://www.w3.org/2000/svg">
<g clip-path="url(#clip0_1443_758)">
<path d="M16.2095 17.9946V6.2955C16.2095 5.34167 15.4362 4.56836 14.4822 4.56836H3.3308C2.37697 4.56836 1.60366 5.34167 1.60366 6.2955V17.7394C1.60366 18.6932 2.37697 19.4665 3.3308 19.4665H4.69023" stroke="#006594" stroke-width="1.71429" stroke-linecap="round" stroke-linejoin="round"/>
<path d="M23.359 12.7422H16.2128" stroke="#006594" stroke-width="1.71429" stroke-linecap="round" stroke-linejoin="round"/>
<path d="M20.4915 19.4667H21.6694C22.628 19.4667 23.4034 18.6858 23.3964 17.7269L23.3564 12.234L20.9513 7.30984C20.6617 6.71687 20.0595 6.34076 19.3995 6.34076H16.1871" stroke="#006594" stroke-width="1.71429" stroke-linecap="round" stroke-linejoin="round"/>
<path d="M4.71235 19.519C4.71235 21.3752 6.72166 22.5353 8.32914 21.6071C9.07503 21.1765 9.53463 20.3804 9.53463 19.519C9.53463 17.6629 7.52532 16.5029 5.91783 17.431C5.17194 17.8616 4.71235 18.6575 4.71235 19.519Z" stroke="#006594" stroke-width="1.71429" stroke-linecap="round" stroke-linejoin="round"/>
<path d="M15.6575 19.519C15.6575 21.3752 17.6669 22.5353 19.2743 21.6071C20.0204 21.1765 20.48 20.3804 20.48 19.519C20.48 17.6629 18.4707 16.5029 16.8632 17.431C16.1171 17.8616 15.6575 18.6575 15.6575 19.519Z" stroke="#006594" stroke-width="1.71429" stroke-linecap="round" stroke-linejoin="round"/>
<path d="M6.31744 11.4773H11.4956" stroke="#006594" stroke-width="1.71429" stroke-linecap="round" stroke-linejoin="round"/>
<path d="M8.90669 8.888V14.0662" stroke="#006594" stroke-width="1.71429" stroke-linecap="round" stroke-linejoin="round"/>
<path d="M15.6574 19.4664H9.53464" stroke="#006594" stroke-width="1.71429" stroke-linecap="round" stroke-linejoin="round"/>
</g>
<defs>
<clipPath id="clip0_1443_758">
<rect width="24" height="24" fill="white" transform="translate(0.5 0.817505)"/>
</clipPath>
</defs>
</svg>
