<svg width="25" height="25" viewBox="0 0 25 25" fill="none" xmlns="http://www.w3.org/2000/svg">
<path d="M11.2063 19.7445V15.0487L7.13338 17.3966C6.81392 17.5723 6.4865 17.6202 6.15109 17.5403C5.81567 17.4605 5.56011 17.2609 5.38442 16.9414C5.20873 16.6219 5.16081 16.2905 5.24067 15.9471C5.32053 15.6037 5.52018 15.3442 5.83963 15.1685L9.91255 12.7966L5.86359 10.4487C5.54414 10.273 5.3405 10.0135 5.25265 9.67004C5.1648 9.32662 5.20873 8.99523 5.38442 8.67577C5.56011 8.3563 5.81567 8.15668 6.15109 8.07681C6.4865 7.99693 6.81392 8.04485 7.13338 8.22056L11.2063 10.5685V5.84868C11.2063 5.48132 11.3301 5.17386 11.5777 4.92629C11.8252 4.67872 12.1327 4.55493 12.5 4.55493C12.8674 4.55493 13.1749 4.67872 13.4224 4.92629C13.67 5.17386 13.7938 5.48132 13.7938 5.84868V10.5685L17.8667 8.22056C18.1862 8.04485 18.5136 7.99693 18.849 8.07681C19.1844 8.15668 19.44 8.3563 19.6157 8.67577C19.7914 8.99523 19.8353 9.32662 19.7474 9.67004C19.6596 10.0135 19.456 10.273 19.1365 10.4487L15.0875 12.7966L19.1605 15.1685C19.4799 15.3442 19.6795 15.6037 19.7594 15.9471C19.8393 16.2905 19.7914 16.6219 19.6157 16.9414C19.44 17.2609 19.1844 17.4605 18.849 17.5403C18.5136 17.6202 18.1862 17.5723 17.8667 17.3966L13.7938 15.0487V19.7445C13.7938 20.1119 13.67 20.4193 13.4224 20.6669C13.1749 20.9145 12.8674 21.0383 12.5 21.0383C12.1327 21.0383 11.8252 20.9145 11.5777 20.6669C11.3301 20.4193 11.2063 20.1119 11.2063 19.7445Z" fill="#AF001A"/>
</svg>
