<svg width="25" height="25" viewBox="0 0 25 25" fill="none" xmlns="http://www.w3.org/2000/svg">
<path d="M6.75 20.9634V17.8488H5.79167C5.26458 17.8488 4.81337 17.6611 4.43802 17.2858C4.06268 16.9104 3.875 16.4592 3.875 15.9321V14.0154C3.875 13.4884 4.06268 13.0371 4.43802 12.6618C4.81337 12.2865 5.26458 12.0988 5.79167 12.0988H6.75V8.98419H5.55208C5.34844 8.98419 5.17777 8.91486 5.04009 8.77623C4.90225 8.63775 4.83333 8.46607 4.83333 8.26113C4.83333 8.05638 4.90225 7.88609 5.04009 7.75034C5.17777 7.61459 5.34844 7.54669 5.55208 7.54669H6.94167C7.26113 6.30086 7.92794 5.27065 8.94219 4.45607C9.95644 3.64148 11.1424 3.23419 12.5 3.23419C13.8576 3.23419 15.0436 3.64148 16.0578 4.45607C17.0721 5.27065 17.7389 6.30086 18.0583 7.54669H19.4479C19.6516 7.54669 19.8223 7.61603 19.9601 7.75465C20.0978 7.89313 20.1667 8.06482 20.1667 8.26975C20.1667 8.4745 20.0978 8.6448 19.9601 8.78055C19.8223 8.91629 19.6516 8.98419 19.4479 8.98419H18.25V12.0988H19.2083C19.7354 12.0988 20.1866 12.2865 20.562 12.6618C20.9373 13.0371 21.125 13.4884 21.125 14.0154V15.9321C21.125 16.4592 20.9373 16.9104 20.562 17.2858C20.1866 17.6611 19.7354 17.8488 19.2083 17.8488H18.25V20.9634H19.4479C19.6516 20.9634 19.8223 21.0327 19.9601 21.1713C20.0978 21.3098 20.1667 21.4815 20.1667 21.6864C20.1667 21.8912 20.0978 22.0615 19.9601 22.1972C19.8223 22.333 19.6516 22.4009 19.4479 22.4009H5.55208C5.34844 22.4009 5.17777 22.3315 5.04009 22.1929C4.90225 22.0544 4.83333 21.8827 4.83333 21.6778C4.83333 21.473 4.90225 21.3028 5.04009 21.167C5.17777 21.0313 5.34844 20.9634 5.55208 20.9634H6.75ZM8.42708 7.54669H16.5729C16.2695 6.70015 15.7503 6.00937 15.0156 5.4743C14.2809 4.93923 13.4424 4.67169 12.5 4.67169C11.5576 4.67169 10.7191 4.93923 9.98438 5.4743C9.24967 6.00937 8.73054 6.70015 8.42708 7.54669ZM8.1875 20.9634H16.8125V16.4113H19.6875V13.5363H16.8125V8.98419H8.1875V13.5363H5.3125V16.4113H8.1875V20.9634ZM12.5 18.3279C13.4264 18.3279 14.217 18.0005 14.8719 17.3457C15.5268 16.6908 15.8542 15.9001 15.8542 14.9738C15.8542 14.0474 15.5268 13.2568 14.8719 12.6019C14.217 11.947 13.4264 11.6196 12.5 11.6196C11.5736 11.6196 10.783 11.947 10.1281 12.6019C9.47325 13.2568 9.14583 14.0474 9.14583 14.9738C9.14583 15.9001 9.47325 16.6908 10.1281 17.3457C10.783 18.0005 11.5736 18.3279 12.5 18.3279ZM12.5057 16.8904C11.9748 16.8904 11.5217 16.7047 11.1464 16.3332C10.771 15.9615 10.5833 15.5103 10.5833 14.9795C10.5833 14.4486 10.7691 13.9955 11.1406 13.6201C11.5123 13.2448 11.9635 13.0571 12.4943 13.0571C13.0252 13.0571 13.4783 13.2429 13.8536 13.6144C14.229 13.9861 14.4167 14.4373 14.4167 14.968C14.4167 15.4989 14.2309 15.9521 13.8594 16.3274C13.4877 16.7028 13.0365 16.8904 12.5057 16.8904Z" fill="#7D7000"/>
</svg>
