<svg width="25" height="25" viewBox="0 0 25 25" fill="none" xmlns="http://www.w3.org/2000/svg">
<path d="M7.37498 21.4217C6.57636 21.4217 5.89757 21.1422 5.33853 20.5832C4.7795 20.0241 4.49998 19.3453 4.49998 18.5467H3.06248C2.66717 18.5467 2.3288 18.4059 2.04737 18.1243C1.76578 17.8429 1.62498 17.5045 1.62498 17.1092V13.2759C1.62498 12.8805 1.76578 12.5421 2.04737 12.2605C2.3288 11.9791 2.66717 11.8384 3.06248 11.8384H12.1667V7.52586C12.1667 7.13055 12.3074 6.79211 12.589 6.5105C12.8705 6.22909 13.2088 6.08836 13.6042 6.08836H16.2396V4.89044C16.2396 4.6868 16.3085 4.51605 16.4463 4.37821C16.584 4.24053 16.7547 4.17169 16.9583 4.17169H17.9167C18.1203 4.17169 18.291 4.24053 18.4289 4.37821C18.5665 4.51605 18.6354 4.6868 18.6354 4.89044V6.08836H19.7614C20.0729 6.08836 20.3544 6.17763 20.606 6.35621C20.8575 6.5348 21.0312 6.77294 21.1271 7.07065L22.6364 11.5988C22.6684 11.6787 22.6883 11.7549 22.6963 11.8276C22.7043 11.9003 22.7083 11.9757 22.7083 12.054V17.1092C22.7083 17.5045 22.5676 17.8429 22.2862 18.1243C22.0046 18.4059 21.6661 18.5467 21.2708 18.5467H19.8333C19.8333 19.3453 19.5538 20.0241 18.9948 20.5832C18.4357 21.1422 17.7569 21.4217 16.9583 21.4217C16.1597 21.4217 15.4809 21.1422 14.9219 20.5832C14.3628 20.0241 14.0833 19.3453 14.0833 18.5467H10.25C10.25 19.3453 9.97049 20.0241 9.41144 20.5832C8.8524 21.1422 8.17361 21.4217 7.37498 21.4217ZM7.37498 19.9842C7.78228 19.9842 8.12368 19.8464 8.3992 19.5709C8.67472 19.2954 8.81248 18.954 8.81248 18.5467C8.81248 18.1394 8.67472 17.798 8.3992 17.5225C8.12368 17.247 7.78228 17.1092 7.37498 17.1092C6.96769 17.1092 6.62629 17.247 6.35077 17.5225C6.07524 17.798 5.93748 18.1394 5.93748 18.5467C5.93748 18.954 6.07524 19.2954 6.35077 19.5709C6.62629 19.8464 6.96769 19.9842 7.37498 19.9842ZM16.9583 19.9842C17.3656 19.9842 17.707 19.8464 17.9825 19.5709C18.2581 19.2954 18.3958 18.954 18.3958 18.5467C18.3958 18.1394 18.2581 17.798 17.9825 17.5225C17.707 17.247 17.3656 17.1092 16.9583 17.1092C16.551 17.1092 16.2096 17.247 15.9341 17.5225C15.6586 17.798 15.5208 18.1394 15.5208 18.5467C15.5208 18.954 15.6586 19.2954 15.9341 19.5709C16.2096 19.8464 16.551 19.9842 16.9583 19.9842ZM3.06248 13.2759V17.1092H4.88332C5.13887 16.6779 5.48625 16.3305 5.92551 16.067C6.36476 15.8035 6.8479 15.6717 7.37498 15.6717C7.90207 15.6717 8.38521 15.8035 8.82446 16.067C9.26372 16.3305 9.61111 16.6779 9.86665 17.1092H12.1667V13.2759H3.06248ZM13.6042 17.1092H14.4667C14.7222 16.6779 15.0696 16.3305 15.5088 16.067C15.9481 15.8035 16.4312 15.6717 16.9583 15.6717C17.4854 15.6717 17.9685 15.8035 18.4078 16.067C18.847 16.3305 19.1944 16.6779 19.45 17.1092H21.2708V13.2759H13.6042V17.1092ZM13.6042 11.8384H21.1989L19.7614 7.52586H13.6042V11.8384ZM2.58332 9.92169V7.04669H2.10415C1.97637 7.04669 1.86457 6.99878 1.76873 6.90294C1.6729 6.80711 1.62498 6.69532 1.62498 6.56753C1.62498 6.43973 1.6729 6.32794 1.76873 6.23211C1.86457 6.13628 1.97637 6.08836 2.10415 6.08836H10.7292C10.8569 6.08836 10.9687 6.13628 11.0646 6.23211C11.1604 6.32794 11.2083 6.43973 11.2083 6.56753C11.2083 6.69532 11.1604 6.80711 11.0646 6.90294C10.9687 6.99878 10.8569 7.04669 10.7292 7.04669H10.25V9.92169H10.7292C10.8569 9.92169 10.9687 9.96961 11.0646 10.0654C11.1604 10.1613 11.2083 10.2731 11.2083 10.4009C11.2083 10.5287 11.1604 10.6404 11.0646 10.7363C10.9687 10.8321 10.8569 10.88 10.7292 10.88H2.10415C1.97637 10.88 1.86457 10.8321 1.76873 10.7363C1.6729 10.6404 1.62498 10.5287 1.62498 10.4009C1.62498 10.2731 1.6729 10.1613 1.76873 10.0654C1.86457 9.96961 1.97637 9.92169 2.10415 9.92169H2.58332ZM3.54165 9.92169H5.93748V7.04669H3.54165V9.92169ZM6.89582 9.92169H9.29165V7.04669H6.89582V9.92169Z" fill="#7D4B00"/>
</svg>
