<svg width="25" height="25" viewBox="0 0 25 25" fill="none" xmlns="http://www.w3.org/2000/svg">
<path d="M7.92599 21.6819V18.8308H2.03222C1.74472 18.8308 1.52909 18.703 1.38535 18.4475C1.2416 18.192 1.25757 17.9444 1.43326 17.7048L5.19472 12.2663H4.30826C4.02076 12.2663 3.80514 12.1385 3.66139 11.8829C3.51764 11.6274 3.53361 11.3798 3.7093 11.1402L8.69266 4.07251C8.83641 3.86487 9.03603 3.76105 9.29161 3.76105C9.54715 3.76105 9.74682 3.86487 9.89057 4.07251L12.1666 7.30688L14.4427 4.07251C14.5864 3.86487 14.786 3.76105 15.0416 3.76105C15.2972 3.76105 15.4968 3.86487 15.6406 4.07251L20.6239 11.1402C20.7996 11.3798 20.8156 11.6274 20.6718 11.8829C20.5281 12.1385 20.3124 12.2663 20.0249 12.2663H19.1624L22.8999 17.7048C23.0756 17.9444 23.0916 18.192 22.9479 18.4475C22.8041 18.703 22.5885 18.8308 22.301 18.8308H16.4312V21.6819C16.4312 21.8895 16.3633 22.0612 16.2276 22.197C16.0918 22.3327 15.9201 22.4006 15.7124 22.4006H14.3947C14.1871 22.4006 14.0154 22.3327 13.8796 22.197C13.7438 22.0612 13.676 21.8895 13.676 21.6819V18.8308H10.6812V21.6819C10.6812 21.8895 10.6133 22.0612 10.4776 22.197C10.3418 22.3327 10.1701 22.4006 9.96245 22.4006H8.64474C8.43707 22.4006 8.26538 22.3327 8.12964 22.197C7.99384 22.0612 7.92599 21.8895 7.92599 21.6819ZM16.9583 17.3933H20.9114L16.3833 10.8288H18.5156L15.0416 5.89334L13.1249 8.64854L14.8739 11.1402C15.0496 11.3798 15.0656 11.6274 14.9218 11.8829C14.7781 12.1385 14.5624 12.2663 14.2749 12.2663H13.4124L16.9583 17.3933ZM3.44576 17.3933H15.1614L10.6333 10.8288H12.7656L9.29161 5.89334L5.81766 10.8288H7.97391L3.44576 17.3933ZM3.44576 17.3933H7.97391H5.81766H12.7656H10.6333H15.1614H3.44576ZM16.9583 17.3933H13.4124H15.6645H13.1249H18.5156H16.3833H20.9114H16.9583Z" fill="#008304"/>
</svg>
