<svg width="50" height="50" viewBox="0 0 50 50" fill="none" xmlns="http://www.w3.org/2000/svg">
<rect x="0.694444" y="0.694444" width="48.6111" height="48.6111" rx="24.3056" stroke="url(#paint0_linear_1532_103)" stroke-width="1.38889"/>
<rect x="4.5" y="4.5" width="41" height="41" rx="20.5" fill="url(#paint1_linear_1532_103)"/>
<g clip-path="url(#clip0_1532_103)">
<path d="M29.3125 27.25C28.7978 27.2526 28.2904 27.3707 27.8275 27.5956C27.3646 27.8205 26.9582 28.1464 26.6381 28.5494L21.6125 25.4075C21.7956 24.8164 21.7956 24.1836 21.6125 23.5925L26.6381 20.4506C27.1482 21.0822 27.8654 21.5129 28.6626 21.6664C29.4598 21.8199 30.2856 21.6862 30.9938 21.2891C31.7019 20.892 32.2466 20.2571 32.5314 19.4968C32.8162 18.7365 32.8228 17.9 32.5499 17.1354C32.277 16.3707 31.7422 15.7274 31.0404 15.3193C30.3386 14.9112 29.5149 14.7646 28.7154 14.9056C27.9159 15.0466 27.192 15.466 26.6722 16.0896C26.1523 16.7132 25.8699 17.5006 25.875 18.3125C25.8782 18.6199 25.9245 18.9254 26.0125 19.22L20.9868 22.3619C20.5432 21.8033 19.9367 21.3966 19.2516 21.1982C18.5664 20.9997 17.8365 21.0194 17.163 21.2543C16.4895 21.4893 15.9057 21.9279 15.4927 22.5095C15.0796 23.091 14.8577 23.7867 14.8577 24.5C14.8577 25.2133 15.0796 25.909 15.4927 26.4905C15.9057 27.0721 16.4895 27.5107 17.163 27.7457C17.8365 27.9806 18.5664 28.0002 19.2516 27.8018C19.9367 27.6033 20.5432 27.1967 20.9868 26.6381L26.0125 29.78C25.9245 30.0746 25.8782 30.3801 25.875 30.6875C25.875 31.3674 26.0766 32.032 26.4543 32.5973C26.832 33.1626 27.3689 33.6031 27.997 33.8633C28.6251 34.1235 29.3163 34.1916 29.9831 34.0589C30.6499 33.9263 31.2624 33.5989 31.7431 33.1182C32.2239 32.6374 32.5513 32.0249 32.6839 31.3581C32.8165 30.6913 32.7485 30.0001 32.4883 29.372C32.2281 28.7439 31.7875 28.207 31.2222 27.8293C30.6569 27.4516 29.9923 27.25 29.3125 27.25ZM29.3125 16.25C29.7204 16.25 30.1191 16.371 30.4583 16.5976C30.7975 16.8242 31.0619 17.1463 31.218 17.5232C31.3741 17.9001 31.4149 18.3148 31.3353 18.7149C31.2557 19.1149 31.0593 19.4824 30.7709 19.7709C30.4824 20.0593 30.1149 20.2558 29.7148 20.3354C29.3147 20.4149 28.9 20.3741 28.5232 20.218C28.1463 20.0619 27.8242 19.7975 27.5976 19.4584C27.3709 19.1192 27.25 18.7204 27.25 18.3125C27.25 17.7655 27.4673 17.2409 27.8541 16.8541C28.2408 16.4673 28.7654 16.25 29.3125 16.25ZM18.3125 26.5625C17.9045 26.5625 17.5058 26.4415 17.1666 26.2149C16.8274 25.9883 16.5631 25.6661 16.407 25.2893C16.2509 24.9124 16.21 24.4977 16.2896 24.0976C16.3692 23.6975 16.5656 23.33 16.8541 23.0416C17.1425 22.7531 17.51 22.5567 17.9101 22.4771C18.3102 22.3975 18.7249 22.4384 19.1017 22.5945C19.4786 22.7506 19.8007 23.0149 20.0274 23.3541C20.254 23.6933 20.375 24.0921 20.375 24.5C20.375 25.047 20.1577 25.5716 19.7709 25.9584C19.3841 26.3452 18.8595 26.5625 18.3125 26.5625ZM29.3125 32.75C28.9045 32.75 28.5058 32.629 28.1666 32.4024C27.8274 32.1758 27.5631 31.8536 27.407 31.4768C27.2509 31.0999 27.21 30.6852 27.2896 30.2851C27.3692 29.885 27.5656 29.5175 27.8541 29.2291C28.1425 28.9406 28.51 28.7442 28.9101 28.6646C29.3102 28.585 29.7249 28.6259 30.1017 28.782C30.4786 28.9381 30.8007 29.2024 31.0274 29.5416C31.254 29.8808 31.375 30.2796 31.375 30.6875C31.375 31.2345 31.1577 31.7591 30.7709 32.1459C30.3841 32.5327 29.8595 32.75 29.3125 32.75Z" fill="white"/>
</g>
<defs>
<linearGradient id="paint0_linear_1532_103" x1="25" y1="0" x2="25" y2="50" gradientUnits="userSpaceOnUse">
<stop stop-color="#634FAF" stop-opacity="0.6"/>
<stop offset="1" stop-color="#B45C94" stop-opacity="0.41"/>
</linearGradient>
<linearGradient id="paint1_linear_1532_103" x1="11" y1="11" x2="37" y2="42" gradientUnits="userSpaceOnUse">
<stop stop-color="#3B43A6"/>
<stop offset="1" stop-color="#9D3870"/>
</linearGradient>
<clipPath id="clip0_1532_103">
<rect width="22" height="22" fill="white" transform="translate(13.5 13.5)"/>
</clipPath>
</defs>
</svg>
