<svg width="51" height="51" viewBox="0 0 51 51" fill="none" xmlns="http://www.w3.org/2000/svg">
<rect x="1.19444" y="1.05705" width="48.6111" height="48.6111" rx="8.56481" stroke="url(#paint0_linear_1439_348)" stroke-width="1.38889"/>
<rect x="3.64286" y="3.7912" width="43.4286" height="43.4286" rx="7.2381" fill="url(#paint1_linear_1439_348)"/>
<path d="M24.976 31.5375C25.2316 31.5375 25.4273 31.4935 25.563 31.4057C25.6988 31.3179 25.7667 31.1861 25.7667 31.0104C25.7667 30.8347 25.6988 30.6989 25.563 30.6031C25.4273 30.5073 25.2236 30.4593 24.9521 30.4593C24.2812 30.4593 23.5984 30.2477 22.9036 29.8244C22.2089 29.4012 21.7656 28.6545 21.574 27.5843C21.542 27.4406 21.4701 27.3248 21.3583 27.2369C21.2465 27.1491 21.1268 27.1052 20.999 27.1052C20.8232 27.1052 20.6875 27.1731 20.5917 27.3088C20.4958 27.4446 20.4639 27.5843 20.4958 27.7281C20.7354 29.0698 21.3024 30.0401 22.1969 30.639C23.0913 31.238 24.0177 31.5375 24.976 31.5375ZM25 34.6041C22.8118 34.6041 20.987 33.8534 19.5255 32.3521C18.0641 30.8507 17.3333 28.9819 17.3333 26.7458C17.3333 25.1486 17.9682 23.4116 19.238 21.5349C20.5078 19.6581 22.4285 17.6257 25 15.4375C27.5715 17.6257 29.4922 19.6581 30.762 21.5349C32.0318 23.4116 32.6667 25.1486 32.6667 26.7458C32.6667 28.9819 31.9359 30.8507 30.4745 32.3521C29.013 33.8534 27.1882 34.6041 25 34.6041ZM25 33.1666C26.7889 33.1666 28.2743 32.5557 29.4562 31.3338C30.6382 30.1119 31.2292 28.5826 31.2292 26.7458C31.2292 25.484 30.6981 24.0505 29.6359 22.4453C28.5738 20.8401 27.0285 19.143 25 17.3541C22.9715 19.143 21.4262 20.8401 20.3641 22.4453C19.3019 24.0505 18.7708 25.484 18.7708 26.7458C18.7708 28.5826 19.3618 30.1119 20.5437 31.3338C21.7257 32.5557 23.2111 33.1666 25 33.1666Z" fill="white"/>
<defs>
<linearGradient id="paint0_linear_1439_348" x1="25.5" y1="0.36261" x2="25.5" y2="50.3626" gradientUnits="userSpaceOnUse">
<stop stop-color="#634FAF" stop-opacity="0.6"/>
<stop offset="1" stop-color="#B45C94" stop-opacity="0.41"/>
</linearGradient>
<linearGradient id="paint1_linear_1439_348" x1="6.53809" y1="4.51501" x2="44.1762" y2="45.7722" gradientUnits="userSpaceOnUse">
<stop stop-color="#3643A8"/>
<stop offset="1" stop-color="#AB3667"/>
</linearGradient>
</defs>
</svg>
