<svg width="25" height="25" viewBox="0 0 25 25" fill="none" xmlns="http://www.w3.org/2000/svg">
<g clip-path="url(#clip0_1443_740)">
<path d="M9.50313 6.3519C9.35938 6.49565 9.19167 6.56753 9 6.56753C8.80834 6.56753 8.64063 6.49565 8.49688 6.3519L6.96354 4.81857C6.81979 4.67482 6.74792 4.50711 6.74792 4.31544C6.74792 4.12378 6.81979 3.95607 6.96354 3.81232C7.10729 3.66857 7.275 3.59669 7.46667 3.59669C7.65834 3.59669 7.82604 3.66857 7.96979 3.81232L9.50313 5.34565C9.64688 5.4894 9.71875 5.65711 9.71875 5.84878C9.71875 6.04044 9.64688 6.20815 9.50313 6.3519ZM16.1635 6.3519C16.0198 6.20815 15.9479 6.04044 15.9479 5.84878C15.9479 5.65711 16.0198 5.4894 16.1635 5.34565L17.6969 3.81232C17.8406 3.66857 18.0083 3.59669 18.2 3.59669C18.3917 3.59669 18.5594 3.66857 18.7031 3.81232C18.8469 3.95607 18.9188 4.12378 18.9188 4.31544C18.9188 4.50711 18.8469 4.67482 18.7031 4.81857L17.1698 6.3519C17.026 6.49565 16.8583 6.56753 16.6667 6.56753C16.475 6.56753 16.3073 6.49565 16.1635 6.3519ZM12.829 5.60919C12.6243 5.60919 12.454 5.54027 12.3182 5.40243C12.1825 5.26475 12.1146 5.09409 12.1146 4.89044V2.01544C12.1146 1.8118 12.1839 1.64105 12.3225 1.50321C12.461 1.36553 12.6327 1.29669 12.8376 1.29669C13.0424 1.29669 13.2127 1.36553 13.3484 1.50321C13.4842 1.64105 13.5521 1.8118 13.5521 2.01544V4.89044C13.5521 5.09409 13.4828 5.26475 13.3441 5.40243C13.2056 5.54027 13.034 5.60919 12.829 5.60919ZM4.20834 23.3384V16.055C4.20834 15.9804 4.21233 15.9059 4.22031 15.8315C4.2283 15.7569 4.24826 15.6797 4.28021 15.5998L6.14896 9.94565C6.24479 9.64219 6.41849 9.40261 6.67005 9.2269C6.92162 9.05119 7.20313 8.96336 7.51459 8.96336H18.1521C18.4635 8.96336 18.7451 9.05119 18.9966 9.2269C19.2482 9.40261 19.4219 9.64219 19.5177 9.94565L21.3865 15.5998C21.4184 15.6797 21.4384 15.7569 21.4464 15.8315C21.4544 15.9059 21.4583 15.9804 21.4583 16.055V23.3384C21.4583 23.6046 21.3646 23.8308 21.1771 24.0171C20.9897 24.2035 20.7621 24.2967 20.4943 24.2967C20.2265 24.2967 20.0009 24.2035 19.8172 24.0171C19.6335 23.8308 19.5417 23.6046 19.5417 23.3384V22.2842H6.125V23.3384C6.125 23.6046 6.03124 23.8308 5.84373 24.0171C5.65638 24.2035 5.42877 24.2967 5.16092 24.2967C4.89322 24.2967 4.66754 24.2035 4.48386 24.0171C4.30018 23.8308 4.20834 23.6046 4.20834 23.3384ZM6.19688 14.3779H19.4698L18.1521 10.4009H7.51459L6.19688 14.3779ZM8.17967 19.6488C8.55088 19.6488 8.86023 19.523 9.10782 19.2714C9.3554 19.0199 9.47917 18.7144 9.47917 18.355C9.47917 17.9824 9.35339 17.6656 9.10183 17.4046C8.85026 17.1438 8.54479 17.0134 8.18542 17.0134C7.81277 17.0134 7.49599 17.1432 7.23499 17.4029C6.97418 17.6628 6.84375 17.9783 6.84375 18.3493C6.84375 18.7205 6.97361 19.0298 7.23331 19.2774C7.49317 19.525 7.80865 19.6488 8.17967 19.6488ZM17.5052 19.6488C17.8779 19.6488 18.1946 19.523 18.4556 19.2714C18.7164 19.0199 18.8469 18.7144 18.8469 18.355C18.8469 17.9824 18.717 17.6656 18.4573 17.4046C18.1975 17.1438 17.882 17.0134 17.511 17.0134C17.1398 17.0134 16.8304 17.1432 16.5828 17.4029C16.3352 17.6628 16.2115 17.9783 16.2115 18.3493C16.2115 18.7205 16.3372 19.0298 16.5888 19.2774C16.8404 19.525 17.1458 19.6488 17.5052 19.6488ZM5.64584 20.8467H20.0208V15.8154H5.64584V20.8467Z" fill="#006A78"/>
</g>
<defs>
<clipPath id="clip0_1443_740">
<rect width="24" height="24" fill="white" transform="translate(0.833336 0.796692)"/>
</clipPath>
</defs>
</svg>
