<svg width="25" height="25" viewBox="0 0 25 25" fill="none" xmlns="http://www.w3.org/2000/svg">
<g clip-path="url(#clip0_1463_293)">
<path d="M7.99934 18.1875C7.10834 18.136 6.49284 17.3025 6.73634 16.4435C7.51784 13.686 8.67634 11.255 9.33284 9.991C9.64184 9.395 10.2023 8.97951 10.8703 8.91051C11.3548 8.86051 12.0093 8.8175 12.8333 8.8175C13.6578 8.8175 14.3118 8.86001 14.7968 8.91051C15.4643 8.97951 16.0248 9.3955 16.3343 9.991C16.9903 11.255 18.1493 13.686 18.9303 16.4435C19.1738 17.302 18.5583 18.136 17.6673 18.187C17.2533 18.2105 16.7683 18.2345 16.2183 18.2555L15.9268 21.9005C15.8718 22.586 15.3568 23.147 14.6718 23.2165C14.1418 23.27 13.4878 23.3175 12.8333 23.3175C12.1788 23.3175 11.5248 23.27 10.9948 23.2165C10.3098 23.1465 9.79484 22.5865 9.73984 21.9L9.44834 18.255C8.89834 18.235 8.41334 18.2105 7.99934 18.187V18.1875Z" stroke="#840097" stroke-width="1.5" stroke-linecap="round" stroke-linejoin="round"/>
<path d="M9.58334 5.5675C9.58334 6.42946 9.92575 7.25611 10.5352 7.8656C11.1447 8.4751 11.9714 8.8175 12.8333 8.8175C13.6953 8.8175 14.5219 8.4751 15.1314 7.8656C15.7409 7.25611 16.0833 6.42946 16.0833 5.5675C16.0833 4.70555 15.7409 3.8789 15.1314 3.26941C14.5219 2.65991 13.6953 2.3175 12.8333 2.3175C11.9714 2.3175 11.1447 2.65991 10.5352 3.26941C9.92575 3.8789 9.58334 4.70555 9.58334 5.5675Z" stroke="#840097" stroke-width="1.5" stroke-linecap="round" stroke-linejoin="round"/>
<path d="M12.8333 18.8175V23.3175" stroke="#840097" stroke-width="1.5" stroke-linecap="round" stroke-linejoin="round"/>
</g>
<defs>
<clipPath id="clip0_1463_293">
<rect width="24" height="24" fill="white" transform="translate(0.833336 0.817505)"/>
</clipPath>
</defs>
</svg>
